<svg width="400" height="400" viewBox="0 0 400 400" fill="none" xmlns="http://www.w3.org/2000/svg">
<g clip-path="url(#clip0_620_193)">
<mask id="mask0_620_193" style="mask-type:luminance" maskUnits="userSpaceOnUse" x="0" y="0" width="400" height="400">
<path d="M400 0H0V400H400V0Z" fill="white"/>
</mask>
<g mask="url(#mask0_620_193)">
<path d="M300 0H100C44.7715 0 0 44.7715 0 100V300C0 355.228 44.7715 400 100 400H300C355.228 400 400 355.228 400 300V100C400 44.7715 355.228 0 300 0Z" fill="url(#paint0_linear_620_193)"/>
<g filter="url(#filter0_dd_620_193)">
<path d="M122 124.002L274.017 276.019" stroke="white" stroke-width="20" stroke-linecap="round"/>
<path d="M126.198 276.017L278.215 124" stroke="white" stroke-width="20" stroke-linecap="round"/>
</g>
</g>
</g>
<defs>
<filter id="filter0_dd_620_193" x="108" y="113" width="184.215" height="181.019" filterUnits="userSpaceOnUse" color-interpolation-filters="sRGB">
<feFlood flood-opacity="0" result="BackgroundImageFix"/>
<feColorMatrix in="SourceAlpha" type="matrix" values="0 0 0 0 0 0 0 0 0 0 0 0 0 0 0 0 0 0 127 0" result="hardAlpha"/>
<feOffset dy="1"/>
<feGaussianBlur stdDeviation="1"/>
<feComposite in2="hardAlpha" operator="out"/>
<feColorMatrix type="matrix" values="0 0 0 0 0 0 0 0 0 0 0 0 0 0 0 0 0 0 0.06 0"/>
<feBlend mode="normal" in2="BackgroundImageFix" result="effect1_dropShadow_620_193"/>
<feColorMatrix in="SourceAlpha" type="matrix" values="0 0 0 0 0 0 0 0 0 0 0 0 0 0 0 0 0 0 127 0" result="hardAlpha"/>
<feOffset dy="4"/>
<feGaussianBlur stdDeviation="2"/>
<feComposite in2="hardAlpha" operator="out"/>
<feColorMatrix type="matrix" values="0 0 0 0 0 0 0 0 0 0 0 0 0 0 0 0 0 0 0.1 0"/>
<feBlend mode="normal" in2="effect1_dropShadow_620_193" result="effect2_dropShadow_620_193"/>
<feBlend mode="normal" in="SourceGraphic" in2="effect2_dropShadow_620_193" result="shape"/>
</filter>
<linearGradient id="paint0_linear_620_193" x1="0" y1="0" x2="400.883" y2="0.883333" gradientUnits="userSpaceOnUse">
<stop stop-color="#FB923C"/>
<stop offset="1" stop-color="#DB2777"/>
</linearGradient>
<clipPath id="clip0_620_193">
<rect width="400" height="400" fill="white"/>
</clipPath>
</defs>
</svg>
