<svg width="20" height="20" viewBox="0 0 20 20" fill="none" xmlns="http://www.w3.org/2000/svg">
<path d="M10 19L12.8868 14H7.11322L10 19Z" fill="black"/>
<path d="M0.979492 13L4.8281 2.97852H6.2568L10.3584 13H8.8477L7.6787 9.96482H3.4883L2.3877 13H0.979492ZM3.8711 8.88482H7.2686L6.2227 6.10942C5.9036 5.26631 5.6667 4.57362 5.5117 4.03122C5.3841 4.67382 5.2041 5.31182 4.9717 5.94532L3.8711 8.88482ZM15.998 12.1045C15.5423 12.4919 15.1025 12.7653 14.6787 12.9248C14.2594 13.0843 13.8083 13.1641 13.3252 13.1641C12.5277 13.1641 11.9147 12.9704 11.4863 12.583C11.0579 12.1911 10.8438 11.6921 10.8438 11.0859C10.8438 10.7305 10.9235 10.4069 11.083 10.1152C11.2471 9.81902 11.459 9.58202 11.7188 9.40432C11.9831 9.22662 12.2793 9.09211 12.6074 9.00101C12.849 8.93721 13.2135 8.87572 13.7012 8.81642C14.6947 8.69792 15.4261 8.55661 15.8955 8.39261C15.9001 8.22401 15.9023 8.11692 15.9023 8.07132C15.9023 7.57002 15.7861 7.21681 15.5537 7.01171C15.2393 6.73372 14.7721 6.59472 14.1523 6.59472C13.5736 6.59472 13.1452 6.69732 12.8672 6.90232C12.5938 7.10292 12.391 7.46062 12.2588 7.97562L11.0557 7.81151C11.165 7.29651 11.3451 6.88182 11.5957 6.56742C11.8464 6.24842 12.2087 6.00462 12.6826 5.83592C13.1566 5.66282 13.7057 5.57621 14.3301 5.57621C14.9499 5.57621 15.4535 5.64912 15.8408 5.79492C16.2282 5.94082 16.513 6.12532 16.6953 6.34862C16.8776 6.56742 17.0052 6.84542 17.0781 7.18262C17.1191 7.39232 17.1396 7.77052 17.1396 8.31742V9.95802C17.1396 11.1019 17.1647 11.8265 17.2148 12.1318C17.2695 12.4326 17.3743 12.722 17.5293 13H16.2441C16.1165 12.7448 16.0345 12.4463 15.998 12.1045ZM15.8955 9.35641C15.4489 9.53871 14.779 9.69372 13.8857 9.82132C13.3799 9.89422 13.0221 9.97622 12.8125 10.0674C12.6029 10.1585 12.4411 10.293 12.3271 10.4707C12.2132 10.6439 12.1562 10.8376 12.1562 11.0518C12.1562 11.3799 12.2793 11.6533 12.5254 11.8721C12.776 12.0908 13.1406 12.2002 13.6191 12.2002C14.0931 12.2002 14.5146 12.0977 14.8838 11.8926C15.2529 11.6829 15.5241 11.3981 15.6973 11.0381C15.8294 10.7601 15.8955 10.3499 15.8955 9.80762V9.35641Z" fill="black"/>
</svg>
