<svg width="20" height="20" viewBox="0 0 20 20" fill="none" xmlns="http://www.w3.org/2000/svg">
<path d="M10 1L7.11322 6H12.8868L10 1Z" fill="black"/>
<path d="M0.979492 17L4.8281 6.97852H6.2568L10.3584 17H8.8477L7.6787 13.9648H3.4883L2.3877 17H0.979492ZM3.8711 12.8848H7.2686L6.2227 10.1094C5.9036 9.26632 5.6667 8.57362 5.5117 8.03122C5.3841 8.67382 5.2041 9.31181 4.9717 9.94531L3.8711 12.8848ZM15.998 16.1045C15.5423 16.4919 15.1025 16.7653 14.6787 16.9248C14.2594 17.0843 13.8083 17.1641 13.3252 17.1641C12.5277 17.1641 11.9147 16.9704 11.4863 16.583C11.0579 16.1911 10.8438 15.6921 10.8438 15.0859C10.8438 14.7305 10.9235 14.4069 11.083 14.1152C11.2471 13.819 11.459 13.582 11.7188 13.4043C11.9831 13.2266 12.2793 13.0921 12.6074 13.001C12.849 12.9372 13.2135 12.8757 13.7012 12.8164C14.6947 12.6979 15.4261 12.5566 15.8955 12.3926C15.9001 12.224 15.9023 12.1169 15.9023 12.0713C15.9023 11.57 15.7861 11.2168 15.5537 11.0117C15.2393 10.7337 14.7721 10.5947 14.1523 10.5947C13.5736 10.5947 13.1452 10.6973 12.8672 10.9023C12.5938 11.1029 12.391 11.4606 12.2588 11.9756L11.0557 11.8115C11.165 11.2965 11.3451 10.8818 11.5957 10.5674C11.8464 10.2484 12.2087 10.0046 12.6826 9.83591C13.1566 9.66281 13.7057 9.57622 14.3301 9.57622C14.9499 9.57622 15.4535 9.64912 15.8408 9.79492C16.2282 9.94082 16.513 10.1253 16.6953 10.3486C16.8776 10.5674 17.0052 10.8454 17.0781 11.1826C17.1191 11.3923 17.1396 11.7705 17.1396 12.3174V13.958C17.1396 15.1019 17.1647 15.8265 17.2148 16.1318C17.2695 16.4326 17.3743 16.722 17.5293 17H16.2441C16.1165 16.7448 16.0345 16.4463 15.998 16.1045ZM15.8955 13.3564C15.4489 13.5387 14.779 13.6937 13.8857 13.8213C13.3799 13.8942 13.0221 13.9762 12.8125 14.0674C12.6029 14.1585 12.4411 14.293 12.3271 14.4707C12.2132 14.6439 12.1562 14.8376 12.1562 15.0518C12.1562 15.3799 12.2793 15.6533 12.5254 15.8721C12.776 16.0908 13.1406 16.2002 13.6191 16.2002C14.0931 16.2002 14.5146 16.0977 14.8838 15.8926C15.2529 15.6829 15.5241 15.3981 15.6973 15.0381C15.8294 14.7601 15.8955 14.3499 15.8955 13.8076V13.3564Z" fill="black"/>
</svg>
