<svg width="24" height="24" viewBox="0 0 24 24" fill="none" xmlns="http://www.w3.org/2000/svg">
<path fill-rule="evenodd" clip-rule="evenodd" d="M22.2071 1.79292C22.4788 2.06456 22.5708 2.46779 22.4439 2.83038L15.7939 21.8304C15.6584 22.2174 15.3004 22.4825 14.8908 22.4992C14.4811 22.5159 14.1027 22.2808 13.9362 21.9062L10.2924 13.7076L2.09387 10.0638C1.71919 9.89731 1.48412 9.51894 1.50084 9.10926C1.51755 8.69959 1.78265 8.34162 2.16965 8.20617L21.1697 1.55617C21.5322 1.42926 21.9355 1.52128 22.2071 1.79292ZM12.2428 13.1715L14.7394 18.789L19.1085 6.30571L12.2428 13.1715ZM17.6943 4.8915L5.21108 9.26063L10.8285 11.7573L17.6943 4.8915Z" fill="#5b5b66" fill-opacity="0.85"/>
</svg>
