<svg width="24" height="24" viewBox="0 0 24 24" fill="none" xmlns="http://www.w3.org/2000/svg">
<path fill-rule="evenodd" clip-rule="evenodd" d="M13.75 2C14.3023 2 14.75 2.44772 14.75 3V7C14.75 7.55228 14.3023 8 13.75 8C13.1977 8 12.75 7.55228 12.75 7V6H2.75C2.19772 6 1.75 5.55228 1.75 5C1.75 4.44772 2.19772 4 2.75 4H12.75V3C12.75 2.44772 13.1977 2 13.75 2ZM16.75 5C16.75 4.44772 17.1977 4 17.75 4H20.75C21.3023 4 21.75 4.44772 21.75 5C21.75 5.55228 21.3023 6 20.75 6H17.75C17.1977 6 16.75 5.55228 16.75 5ZM10.75 9C11.3023 9 11.75 9.44772 11.75 10V11H21.75C22.3023 11 22.75 11.4477 22.75 12C22.75 12.5523 22.3023 13 21.75 13H11.75V14C11.75 14.5523 11.3023 15 10.75 15C10.1977 15 9.75 14.5523 9.75 14V10C9.75 9.44772 10.1977 9 10.75 9ZM1.75 12C1.75 11.4477 2.19772 11 2.75 11H6.75C7.30228 11 7.75 11.4477 7.75 12C7.75 12.5523 7.30228 13 6.75 13H2.75C2.19772 13 1.75 12.5523 1.75 12ZM13.75 16C14.3023 16 14.75 16.4477 14.75 17V21C14.75 21.5523 14.3023 22 13.75 22C13.1977 22 12.75 21.5523 12.75 21V20H2.75C2.19772 20 1.75 19.5523 1.75 19C1.75 18.4477 2.19772 18 2.75 18H12.75V17C12.75 16.4477 13.1977 16 13.75 16ZM16.75 19C16.75 18.4477 17.1977 18 17.75 18H20.75C21.3023 18 21.75 18.4477 21.75 19C21.75 19.5523 21.3023 20 20.75 20H17.75C17.1977 20 16.75 19.5523 16.75 19Z" fill="black" fill-opacity="0.85"/>
</svg>
