<svg width="400" height="400" viewBox="0 0 400 400" fill="none" xmlns="http://www.w3.org/2000/svg">
<g clip-path="url(#clip0_620_202)">
<path d="M300 0H100C44.7715 0 0 44.7715 0 100V300C0 355.228 44.7715 400 100 400H300C355.228 400 400 355.228 400 300V100C400 44.7715 355.228 0 300 0Z" fill="url(#paint0_linear_620_202)"/>
<g filter="url(#filter0_dd_620_202)">
<path d="M83.3335 150C83.3335 141.16 86.8454 132.681 93.0966 126.43C99.3478 120.179 107.826 116.667 116.667 116.667H283.333C292.174 116.667 300.652 120.179 306.904 126.43C313.155 132.681 316.667 141.16 316.667 150V250C316.667 258.841 313.155 267.319 306.904 273.571C300.652 279.822 292.174 283.334 283.333 283.334H240.233C235.814 283.335 231.575 285.091 228.45 288.217L200 316.667L171.55 288.217C168.425 285.091 164.187 283.335 159.767 283.334H116.667C107.826 283.334 99.3478 279.822 93.0966 273.571C86.8454 267.319 83.3335 258.841 83.3335 250V150Z" fill="#FFF7ED"/>
</g>
</g>
<defs>
<filter id="filter0_dd_620_202" x="80.3335" y="114.667" width="239.333" height="206" filterUnits="userSpaceOnUse" color-interpolation-filters="sRGB">
<feFlood flood-opacity="0" result="BackgroundImageFix"/>
<feColorMatrix in="SourceAlpha" type="matrix" values="0 0 0 0 0 0 0 0 0 0 0 0 0 0 0 0 0 0 127 0" result="hardAlpha"/>
<feOffset dy="1"/>
<feGaussianBlur stdDeviation="1"/>
<feColorMatrix type="matrix" values="0 0 0 0 0 0 0 0 0 0 0 0 0 0 0 0 0 0 0.06 0"/>
<feBlend mode="normal" in2="BackgroundImageFix" result="effect1_dropShadow_620_202"/>
<feColorMatrix in="SourceAlpha" type="matrix" values="0 0 0 0 0 0 0 0 0 0 0 0 0 0 0 0 0 0 127 0" result="hardAlpha"/>
<feOffset dy="1"/>
<feGaussianBlur stdDeviation="1.5"/>
<feColorMatrix type="matrix" values="0 0 0 0 0 0 0 0 0 0 0 0 0 0 0 0 0 0 0.1 0"/>
<feBlend mode="normal" in2="effect1_dropShadow_620_202" result="effect2_dropShadow_620_202"/>
<feBlend mode="normal" in="SourceGraphic" in2="effect2_dropShadow_620_202" result="shape"/>
</filter>
<linearGradient id="paint0_linear_620_202" x1="0" y1="0" x2="400.883" y2="0.883333" gradientUnits="userSpaceOnUse">
<stop stop-color="#FB923C"/>
<stop offset="1" stop-color="#DB2777"/>
</linearGradient>
<clipPath id="clip0_620_202">
<rect width="400" height="400" fill="white"/>
</clipPath>
</defs>
</svg>
