<svg width="24" height="24" viewBox="0 0 24 24" fill="none" xmlns="http://www.w3.org/2000/svg">
<path fill-rule="evenodd" clip-rule="evenodd" d="M1 12C1 5.92487 5.92487 1 12 1C18.0751 1 23 5.92487 23 12C23 18.0751 18.0751 23 12 23C5.92487 23 1 18.0751 1 12ZM12 3C7.02943 3 3 7.02943 3 12C3 16.9706 7.02943 21 12 21C16.9706 21 21 16.9706 21 12C21 7.02943 16.9706 3 12 3ZM5 12C5 8.13402 8.13402 5 12 5C12.5523 5 13 5.44772 13 6V18C13 18.5523 12.5523 19 12 19C8.13402 19 5 15.866 5 12ZM11 7.10002C8.71777 7.56329 7 9.58105 7 12C7 14.419 8.71777 16.4367 11 16.9V7.10002Z" fill="#5b5b66" fill-opacity="0.85"/>
</svg>
