<svg width="24" height="24" viewBox="0 0 24 24" fill="none" xmlns="http://www.w3.org/2000/svg">
<path fill-rule="evenodd" clip-rule="evenodd" d="M7.68374 2.05159C8.20768 1.87694 8.774 2.1601 8.94865 2.68404L9.44865 4.18404C9.48361 4.28891 9.50022 4.39547 9.50024 4.50024C11.0002 4.50024 12.5001 4.50024 14 4.50024C14.5523 4.50024 15 4.94796 15 5.50024C15 6.05253 14.5523 6.50024 14 6.50024H12.7732C12.648 6.93918 12.4615 7.53346 12.2067 8.19797C11.686 9.55581 10.8437 11.3046 9.58261 12.5915L9.5787 12.5954C9.56379 12.6106 9.54882 12.6258 9.5338 12.641C10.4251 13.2265 11.4442 13.7606 12.3343 14.1843C12.9112 14.4588 13.4204 14.6807 13.7847 14.8337C13.9748 14.9135 14.1655 14.9923 14.3579 15.0665C14.4167 15.089 14.4721 15.1165 14.5239 15.1483L16.0845 11.5978C16.2441 11.2347 16.6033 11.0002 17 11.0002C17.3966 11.0002 17.7558 11.2347 17.9154 11.5978L20.7696 18.0911L21.9094 20.5845C22.1391 21.0868 21.918 21.6801 21.4157 21.9097C20.9134 22.1393 20.3201 21.9183 20.0905 21.416L19.2147 19.5002H14.7852L13.9094 21.416C13.6798 21.9183 13.0865 22.1393 12.5842 21.9097C12.0819 21.6801 11.8609 21.0868 12.0905 20.5845L13.2303 18.0911L13.7265 16.9622C13.6982 16.9541 13.67 16.9447 13.642 16.934C13.43 16.8525 13.2199 16.7657 13.0105 16.6777C12.6239 16.5155 12.0855 16.2808 11.4748 15.9902C10.4189 15.4876 9.10488 14.7978 7.98594 14.0061C7.17616 14.6421 6.34253 15.2018 5.6252 15.65C5.013 16.0324 4.47298 16.3413 4.08497 16.5551C3.87616 16.6701 3.66632 16.7836 3.45365 16.8914L3.44982 16.8933C2.95641 17.1415 2.35467 16.9429 2.10656 16.4495C1.85848 15.9561 2.05727 15.3551 2.55055 15.1069L2.55158 15.1064C3.24159 14.7566 3.90969 14.3635 4.56555 13.9538C5.16191 13.5812 5.81801 13.1424 6.45555 12.6605C5.73601 11.855 5.20552 10.9712 4.8337 10.2324C4.56219 9.69297 4.36607 9.21224 4.23704 8.86408C4.17239 8.68961 4.12418 8.54737 4.09147 8.44641C4.07332 8.39037 4.05556 8.33418 4.03919 8.2776L4.03862 8.27561C3.88684 7.74459 4.19413 7.19055 4.72515 7.03877C5.25565 6.88715 5.80861 7.19384 5.96102 7.7239L5.96134 7.72501L5.96182 7.72662C6.00658 7.87583 6.05828 8.02303 6.1124 8.16908C6.22104 8.46223 6.38842 8.8728 6.6202 9.33332C6.9549 9.99833 7.40575 10.731 7.98032 11.3651C8.03926 11.3075 8.09723 11.2497 8.15414 11.1916L8.15755 11.1882C9.13162 10.1925 9.85395 8.74758 10.3393 7.48189C10.4752 7.12742 10.5897 6.79465 10.6839 6.50024H2.99997C2.44768 6.50024 1.99997 6.05253 1.99997 5.50024C1.99997 4.94796 2.44768 4.50024 2.99997 4.50024H7.44587L7.05128 3.3165C6.87664 2.79256 7.1598 2.22624 7.68374 2.05159ZM15.6747 17.5002H18.3252L17 14.4853L15.6747 17.5002Z" fill="black" fill-opacity="0.85"/>
</svg>
